<svg height="452pt" viewBox="0 -1 452.0241 452" width="452pt" xmlns="http://www.w3.org/2000/svg"><path d="m64.820312 22.363281c-1.949218 23.128907-26.050781 26.78125-26.050781 26.78125 20.691407.976563 25.851563 28.117188 25.851563 28.117188.441406-19.351563 26.640625-28.402344 26.640625-28.402344-19.625-1.175781-26.441407-26.496094-26.441407-26.496094zm0 0" fill="#d7e057"/><path d="m91.441406 45.863281c-17.207031-1.03125-23.664062-24.046875-23.726562-24.28125-.378906-1.40625-1.691406-2.324219-3.164063-2.203125-1.449219.128906-2.597656 1.28125-2.71875 2.730469-1.71875 20.433594-22.625 23.929687-23.507812 24.066406-1.527344.230469-2.625 1.582031-2.546875 3.121094.082031 1.542969 1.316406 2.769531 2.855468 2.84375 18.054688.851563 22.996094 25.433594 23.046876 25.683594.273437 1.421875 1.515624 2.433593 2.941406 2.433593.085937 0 .167968-.003906.253906-.007812 1.527344-.128906 2.710938-1.386719 2.746094-2.921875.390625-17.015625 24.382812-25.554687 24.625-25.636719 1.351562-.46875 2.183594-1.828125 1.988281-3.246094-.195313-1.417968-1.363281-2.5-2.792969-2.582031zm-27.128906 20.691407c-2.714844-6.261719-7.417969-13.8125-15.175781-17.75 5.863281-2.8125 12.820312-7.828126 16.40625-16.546876 3.101562 6.140626 8.398437 13.757813 16.667969 17.445313-6.015626 3.277344-13.847657 8.808594-17.898438 16.851563zm0 0" fill="#3a312a"/><path d="m21.425781 56.328125c-1.378906 16.355469-18.425781 18.941406-18.425781 18.941406 14.636719.6875 18.285156 19.886719 18.285156 19.886719.3125-13.6875 18.84375-20.089844 18.84375-20.089844-13.886718-.832031-18.703125-18.738281-18.703125-18.738281zm0 0" fill="#d7e057"/><path d="m40.304688 72.070312c-11.53125-.6875-15.941407-16.371093-15.988282-16.527343-.378906-1.40625-1.703125-2.34375-3.164062-2.207031-1.449219.132812-2.597656 1.289062-2.71875 2.738281-1.15625 13.742187-15.292969 16.132812-15.882813 16.226562-1.527343.230469-2.6249998 1.582031-2.54687475 3.121094.08203125 1.542969 1.31249975 2.769531 2.85546875 2.839844 12.070313.570312 15.445313 17.292969 15.476563 17.457031.269531 1.421875 1.519531 2.4375 2.945312 2.4375.082031 0 .164062-.003906.25-.007812 1.527344-.128907 2.714844-1.386719 2.75-2.921876.261719-11.417968 16.664062-17.269531 16.828125-17.324218 1.351563-.46875 2.1875-1.828125 1.992187-3.246094-.199218-1.417969-1.367187-2.5-2.796874-2.585938zm-19.167969 13.589844c-1.847657-3.769531-4.679688-7.894531-8.894531-10.558594 3.710937-2.082031 7.394531-5.257812 9.742187-9.832031 2.113281 3.746094 5.308594 7.910157 9.882813 10.449219-3.699219 2.199219-7.980469 5.476562-10.730469 9.941406zm0 0" fill="#3a312a"/><path d="m21.425781 3.011719c-1.378906 16.359375-18.425781 18.941406-18.425781 18.941406 14.636719.6875 18.285156 19.886719 18.285156 19.886719.3125-13.6875 18.84375-20.089844 18.84375-20.089844-13.886718-.832031-18.703125-18.738281-18.703125-18.738281zm0 0" fill="#d7e057"/><path d="m40.304688 18.757812c-11.53125-.691406-15.941407-16.371093-15.988282-16.53125-.378906-1.402343-1.703125-2.328124-3.164062-2.2031245-1.449219.1289065-2.597656 1.2851565-2.71875 2.7343745-1.15625 13.742188-15.292969 16.132813-15.882813 16.226563-1.527343.234375-2.6249998 1.582031-2.54687475 3.121094.08203125 1.542969 1.31249975 2.773437 2.85546875 2.84375 12.070313.566406 15.445313 17.289062 15.480469 17.453125.269531 1.425781 1.515625 2.441406 2.941406 2.441406.085938 0 .167969-.003906.25-.011719 1.53125-.125 2.71875-1.386719 2.753906-2.921875.257813-11.417968 16.664063-17.265625 16.824219-17.324218 1.355469-.464844 2.1875-1.824219 1.992187-3.242188-.199218-1.417969-1.367187-2.503906-2.796874-2.585938zm-19.167969 13.589844c-1.847657-3.773437-4.679688-7.894531-8.894531-10.558594 3.710937-2.082031 7.394531-5.261718 9.738281-9.832031 2.117187 3.746094 5.308593 7.90625 9.882812 10.445313-3.695312 2.199218-7.976562 5.480468-10.726562 9.945312zm0 0" fill="#3a312a"/><path d="m3.027344 170.324219v277.28125l111.515625-53.449219v-277.28125zm0 0" fill="#8ac6dd" fill-rule="evenodd"/><path d="m116.144531 114.335938c-.871093-.550782-1.964843-.613282-2.894531-.167969l-111.523438 53.453125c-1.039062.496094-1.7031245 1.546875-1.7031245 2.703125v125.96875c0 1.652343 1.3437505 3 3.0000005 3 1.660156 0 3-1.347657 3-3v-124.078125l105.519531-50.574219v270.628906l-105.519531 50.574219v-115.964844c0-1.65625-1.339844-3-3-3-1.65625 0-3.0000005 1.34375-3.0000005 3v120.726563c0 1.035156.5312505 1.992187 1.4023435 2.542969.484375.304687 1.042969.457031 1.597657.457031.441406 0 .886718-.097657 1.296874-.292969l111.519532-53.449219c1.042968-.5 1.703125-1.550781 1.703125-2.707031v-277.28125c.003906-1.03125-.527344-1.992188-1.398438-2.539062zm0 0" fill="#3a312a"/><path d="m114.542969 116.875v277.28125l111.519531 53.449219v-277.28125zm0 0" fill="#8ac6dd" fill-rule="evenodd"/><path d="m227.359375 167.617188-111.515625-53.449219c-.929688-.445313-2.027344-.382813-2.898438.167969-.871093.546874-1.402343 1.507812-1.402343 2.539062v277.285156c0 1.152344.664062 2.207032 1.707031 2.703125l111.515625 53.453125c.414063.195313.855469.292969 1.296875.292969.554688 0 1.113281-.152344 1.597656-.460937.871094-.546876 1.402344-1.507813 1.402344-2.539063v-277.285156c0-1.15625-.660156-2.210938-1.703125-2.707031zm-4.296875 275.226562-105.515625-50.574219v-270.632812l105.515625 50.574219zm0 0" fill="#3a312a"/><path d="m225.988281 170.324219v277.28125l111.519531-53.449219v-277.28125zm0 0" fill="#8ac6dd" fill-rule="evenodd"/><path d="m339.105469 114.335938c-.875-.550782-1.96875-.613282-2.898438-.167969l-111.515625 53.453125c-1.042968.496094-1.707031 1.546875-1.707031 2.703125v277.285156c0 1.03125.53125 1.988281 1.402344 2.539063.488281.308593 1.042969.460937 1.597656.460937.445313 0 .886719-.097656 1.296875-.292969l111.519531-53.453125c1.042969-.496093 1.703125-1.546875 1.703125-2.703125v-277.285156c.003906-1.03125-.527344-1.992188-1.398437-2.539062zm-4.597657 277.929687-105.519531 50.574219v-270.628906l105.519531-50.574219zm0 0" fill="#3a312a"/><path d="m337.507812 116.875v277.28125l111.519532 53.449219v-277.28125zm0 0" fill="#8ac6dd" fill-rule="evenodd"/><path d="m450.320312 167.617188-111.519531-53.449219c-.925781-.445313-2.019531-.386719-2.894531.164062-.871094.550781-1.402344 1.507813-1.402344 2.542969v277.28125c0 1.15625.664063 2.207031 1.703125 2.707031l111.519531 53.449219c.414063.199219.855469.292969 1.296876.292969.558593 0 1.113281-.152344 1.597656-.457031.871094-.550782 1.402344-1.507813 1.402344-2.542969v-277.28125c.003906-1.15625-.660157-2.210938-1.703126-2.707031zm-4.292968 275.226562-105.519532-50.574219v-270.632812l105.519532 50.574219zm0 0" fill="#3a312a"/><path d="m226.027344 4.449219c-62.089844 0-112.425782 50.332031-112.425782 112.425781 0 26.058594 19.8125 68.082031 42.800782 108.082031l15.601562 26.144531c16.050782 26.007813 31.863282 49.242188 42.195313 63.988282 5.753906 8.214844 17.90625 8.214844 23.65625 0 28.871093-41.226563 100.59375-148.621094 100.59375-198.214844 0-62.09375-50.332031-112.425781-112.421875-112.425781zm0 0" fill="#f16c7a" fill-rule="evenodd"/><path d="m226.027344 1.449219c-63.644532 0-115.425782 51.78125-115.425782 115.425781 0 22.832031 14.535157 59.699219 43.199219 109.574219.828125 1.441406 2.65625 1.929687 4.09375 1.109375 1.4375-.828125 1.933594-2.660156 1.109375-4.097656-28.136718-48.957032-42.402344-84.816407-42.402344-106.585938 0-60.335938 49.085938-109.425781 109.425782-109.425781 60.335937 0 109.421875 49.089843 109.421875 109.425781 0 48.414062-69.96875 153.539062-100.050781 196.492188-2.171876 3.101562-5.589844 4.878906-9.371094 4.878906-3.785156 0-7.203125-1.777344-9.375-4.878906-10.347656-14.777344-26.050782-37.847657-42.097656-63.84375-.867188-1.410157-2.714844-1.847657-4.125-.976563-1.410157.871094-1.847657 2.71875-.980469 4.128906 16.117187 26.121094 31.894531 49.292969 42.289062 64.132813 3.265625 4.65625 8.605469 7.4375 14.289063 7.4375 5.679687 0 11.023437-2.78125 14.285156-7.4375 30.410156-43.417969 101.136719-149.8125 101.136719-199.9375 0-63.640625-51.777344-115.421875-115.421875-115.421875zm0 0" fill="#3a312a"/><path d="m287.359375 106.917969c-5.496094-33.871094-37.410156-56.875-71.28125-51.375-33.871094 5.496093-56.871094 37.410156-51.375 71.28125 5.496094 33.871093 37.410156 56.871093 71.28125 51.375 33.871094-5.496094 56.871094-37.410157 51.375-71.28125zm0 0" fill="#d7e057" fill-rule="evenodd"/><path d="m226.027344 51.746094c-35.914063 0-65.128906 29.214844-65.128906 65.128906 0 35.910156 29.214843 65.125 65.128906 65.125 35.910156 0 65.125-29.214844 65.125-65.125 0-35.914062-29.214844-65.128906-65.125-65.128906zm0 124.257812c-32.605469 0-59.128906-26.527344-59.128906-59.128906s26.527343-59.128906 59.128906-59.128906c32.601562 0 59.125 26.527344 59.125 59.128906s-26.523438 59.128906-59.125 59.128906zm0 0" fill="#3a312a"/><path d="m226.03125 7.449219c-5.097656 0-10.097656.339843-15 1.039062 53.261719 7.320313 94.421875 53.121094 94.421875 108.382813 0 45.597656-62.0625 141.476562-94.421875 188.378906 2 2.917969 3.878906 5.640625 5.621094 8.121094 2.179687 3.097656 5.601562 4.878906 9.378906 4.878906 3.78125 0 7.199219-1.78125 9.359375-4.878906 30.082031-42.960938 100.0625-148.082032 100.0625-196.5 0-60.34375-49.082031-109.421875-109.421875-109.421875zm0 0" fill="#ce4e61"/></svg>